<svg xmlns="http://www.w3.org/2000/svg" width="236" height="193.1" viewBox="0 0 62.449105 51.099648">
  <defs>
    <marker id="a" orient="auto" overflow="visible">
      <path fill-rule="evenodd" stroke-width=".6" d="M-5.2-2.4L1.3 0l-6.5 2.4c1-1.4 1-3.4 0-4.8z" font-size="12" stroke-linejoin="round"/>
    </marker>
  </defs>
  <g transform="translate(150.14304,-80.477588)">
    <path fill="none" stroke="#000" stroke-width=".4" d="M-122.7 116.7c1.3 1.6 3 3.2 4 4.6" font-family="Times-Roman" marker-end="url(#a)"/>
    <path fill="none" stroke="#000" stroke-width=".4" d="M-118 105.3l-4 4.4" font-family="Times-Roman" marker-end="url(#a)"/>
    <path fill="none" stroke="#000" stroke-width=".4" d="M-111.4 105.6l4 4.6" font-family="Times-Roman" marker-end="url(#a)"/>
    <path fill="none" stroke="#000" stroke-width=".4" d="M-100.6 117.4l3.5 4" font-family="Times-Roman" marker-end="url(#a)"/>
    <path fill="none" stroke="#000" stroke-width=".4" d="M-114.8 91.7v5.5" font-family="Times-Roman" marker-end="url(#a)"/>
    <path fill="none" stroke="#000" stroke-width=".4" d="M-129 116.7c-1.2 1.6-2.7 3.2-4 4.6" font-family="Times-Roman" marker-end="url(#a)"/>
    <text x="-148.9" y="95" stroke-width=".3" style="line-height:0%" font-size="4.2" font-family="sans-serif" letter-spacing="0" word-spacing="0">
      <tspan x="-148.9" y="95" style="line-height:1.25" font-size="4.9">Árbol dirigido</tspan>
    </text>
    <circle cx="-31.7" cy="153.4" r="4.8" fill="#fff" stroke="#000" stroke-width=".4" transform="rotate(25.251724)" font-family="Times-Roman"/>
    <circle cx="41.2" cy="165.1" r="4.8" fill="#fff" stroke="#000" stroke-width=".4" transform="rotate(56.612568)" font-family="Times-Roman"/>
    <circle cx="25.4" cy="167.5" r="4.8" fill="#fff" stroke="#000" stroke-width=".4" transform="rotate(56.612568)" font-family="Times-Roman"/>
    <circle cx="37.8" cy="149.5" r="4.8" fill="#fff" stroke="#000" stroke-width=".4" transform="rotate(56.612568)" font-family="Times-Roman"/>
    <circle cx="22" cy="151.9" r="4.8" fill="#fff" stroke="#000" stroke-width=".4" transform="rotate(56.612568)" font-family="Times-Roman"/>
    <circle cx="9.3" cy="143.7" r="4.8" fill="#fff" stroke="#000" stroke-width=".4" transform="rotate(56.612568)" font-family="Times-Roman"/>
    <circle cx="179.6" cy="-45" r="4.8" fill="#fff" stroke="#000" stroke-width=".4" transform="matrix(-0.5502976,0.83496859,0.83496859,0.5502976,0,0)" font-family="Times-Roman"/>
  </g>
</svg>
