<svg xmlns="http://www.w3.org/2000/svg" width="295.9" height="157.3" viewBox="0 0 78.28326 41.607341">
  <defs>
    <marker id="e" orient="auto" overflow="visible">
      <path fill="red" fill-rule="evenodd" stroke="red" stroke-width=".4" d="M-5.2-2.4L1.3 0l-6.5 2.4c1-1.4 1-3.4 0-4.8z" font-size="12" stroke-linejoin="round"/>
    </marker>
    <marker id="d" orient="auto" overflow="visible">
      <path fill="red" fill-rule="evenodd" stroke="red" stroke-width=".4" d="M-5.2-2.4L1.3 0l-6.5 2.4c1-1.4 1-3.4 0-4.8z" font-size="12" stroke-linejoin="round"/>
    </marker>
    <marker id="c" orient="auto" overflow="visible">
      <path fill="red" fill-rule="evenodd" stroke="red" stroke-width=".4" d="M-5.2-2.4L1.3 0l-6.5 2.4c1-1.4 1-3.4 0-4.8z" font-size="12" stroke-linejoin="round"/>
    </marker>
    <marker id="b" orient="auto" overflow="visible">
      <path fill="red" fill-rule="evenodd" stroke="red" stroke-width=".4" d="M-5.2-2.4L1.3 0l-6.5 2.4c1-1.4 1-3.4 0-4.8z" font-size="12" stroke-linejoin="round"/>
    </marker>
    <marker id="a" orient="auto" overflow="visible">
      <path fill="red" fill-rule="evenodd" stroke="red" stroke-width=".4" d="M-5.2-2.4L1.3 0l-6.5 2.4c1-1.4 1-3.4 0-4.8z" font-size="12" stroke-linejoin="round"/>
    </marker>
  </defs>
  <g>
    <g>
      <path fill="none" d="M1.3 2.2h54.5v36.3H1.3" font-family="Times-Roman"/>
      <text x="-133" y="144.9" stroke-width=".3" style="line-height:0%" font-size="4.2" font-family="sans-serif" letter-spacing="0" word-spacing="0" transform="translate(136.484 -122.203)">
        <tspan x="-133" y="144.9" style="line-height:1.25" font-size="4.9">Grafo</tspan>
      </text>
      <g stroke="#000" stroke-width=".8" transform="translate(12.77 -8.762) scale(.34925)" font-family="Times-Roman">
        <circle cx="237" cy="83" r="24" fill="#fff" stroke-width="2.3" transform="translate(32.405 41.017) scale(.57754)"/>
        <circle cx="187" cy="135" r="24" fill="#fff" stroke-width="2.3" transform="translate(32.405 41.017) scale(.57754)"/>
        <path fill="none" stroke-width="1.3" d="M159.5 98.8c-3 3.4-6.4 7-9.3 9.8"/>
        <circle cx="109" cy="147" r="24" fill="#fff" stroke-width="2.3" transform="translate(32.405 41.017) scale(.57754)"/>
        <path fill="none" stroke-width="1.3" d="M126.5 121.3c-5.7.6-12 1.7-17.3 2.3"/>
        <circle cx="170" cy="58" r="24" fill="#fff" stroke-width="2.3" transform="translate(32.405 41.017) scale(.57754)"/>
        <path fill="none" stroke-width="1.3" d="M137.5 105c-1-5-3-11.4-4-16.6"/>
        <circle cx="92" cy="70" r="24" fill="#fff" stroke-width="2.3" transform="translate(32.405 41.017) scale(.57754)"/>
        <path fill="none" stroke-width="1.3" d="M92.5 112c-1.2-5-3-11.5-4-16.7m11-16.3c5.7-.4 12-1.6 17.2-2.2M144 79c4 2 8 3.6 12 5.3"/>
        <circle cx="29" cy="29" r="24" fill="#fff" stroke-width="2.3" transform="translate(32.405 41.017) scale(.57754)"/>
        <path fill="none" stroke-width="1.3" d="M60.7 65.3c4 3 9.2 5.7 13.3 8.6"/>
      </g>
      <text x="-95.6" y="127.2" stroke-width=".3" style="line-height:0%" font-size="4.2" font-family="sans-serif" letter-spacing="0" word-spacing="0" transform="translate(136.484 -122.203)">
        <tspan x="-95.6" y="127.2" style="line-height:1.25" font-size="4.9">Nodos</tspan>
      </text>
      <path fill="red" stroke="red" stroke-width=".4" d="M-96 127.7l-5 2.4" marker-end="url(#a)" transform="translate(136.484 -122.203)"/>
      <path fill="red" stroke="red" stroke-width=".4" d="M-85 128.5l4 5" marker-end="url(#b)" transform="translate(136.484 -122.203)"/>
      <path fill="red" stroke="red" stroke-width=".4" d="M-90 128.4l-2 7" marker-end="url(#c)" transform="translate(136.484 -122.203)"/>
      <text x="-115.7" y="152.5" stroke-width=".3" style="line-height:0%" font-size="4.2" font-family="sans-serif" letter-spacing="0" word-spacing="0" transform="translate(136.484 -122.203)">
        <tspan x="-115.7" y="152.5" style="line-height:1.25" font-size="4.9">Arcos</tspan>
      </text>
      <path fill="red" stroke="red" stroke-width=".4" d="M-107.5 148.4l6-8.8" marker-end="url(#d)" transform="translate(136.484 -122.203)"/>
      <path fill="red" stroke="red" stroke-width=".4" d="M-102.3 151l8-1" marker-end="url(#e)" transform="translate(136.484 -122.203)"/>
    </g>
  </g>
</svg>
