<?xml version="1.0" encoding="UTF-8" ?>
<svg xmlns="http://www.w3.org/2000/svg" width="50" height="48">
  <defs>
    <filter id="a" width="1.24" height="1.25" x="-.12" y="-.13" color-interpolation-filters="sRGB">
      <feGaussianBlur stdDeviation="27.98"/>
    </filter>
  </defs>
  <path d="M603.97 521.14c-32.1 55.58-208.37 59.8-272.54 59.8-64.18 0-240.45-4.22-272.54-59.8-32.1-55.58 52.4-210.34 84.46-265.92 32.1-55.58 123.9-206.12 188.07-206.12 64.17 0 155.96 150.54 188.05 206.12 32.1 55.58 116.58 210.34 84.5 265.92z" transform="translate(1.11 1.3) scale(.07206)" filter="url(#a)"/>
  <path d="M44.63 38.85c-2.3 4-15 4.3-19.64 4.3-4.65 0-17.35-.3-19.67-4.3-2.3-4 3.78-15.15 6.1-19.16 2.3-4 8.92-14.88 13.54-14.88 4.62 0 11.23 10.85 13.54 14.85 2.3 4 8.4 15.15 6.1 19.15z"/>
  <path fill="orange" d="M41.9 37.68c-2 3.6-13.14 3.48-17.16 3.48-4.03 0-15.17.1-17.18-3.48-2.02-3.6 3.65-13.5 5.67-17.1C15.23 17 20.7 7 24.73 7s9.5 10 11.5 13.6c2.03 3.6 7.7 13.5 5.68 17.1z"/>
  <path fill="orange" d="M39.5 35.2c-1.7 2.95-11.12 2.7-14.5 2.7-3.4 0-12.8.25-14.5-2.7-1.7-2.92 3.23-10.94 4.92-13.88C17.12 18.38 21.6 10.1 25 10.1c3.38 0 7.86 8.28 9.56 11.22 1.7 2.94 6.62 10.96 4.93 13.9z"/>
  <path fill="#030303" d="M28.44 36.05a3.07 3.07 0 1 1-6.14 0 3.07 3.07 0 1 1 6.14 0z"/>
  <path fill-rule="evenodd" d="M25.03 11.63c-1.73.02-3.1 1.44-3.08 3.17l.5 13.14c.03 1.13.24 2.02 1.2 2.6 1 .56 1.87.56 2.84 0 .95-.58 1.16-1.47 1.2-2.6l.5-13.14c0-.84-.33-1.66-.93-2.26-.6-.6-1.42-.93-2.27-.9z"/>
</svg>
